# xmcd
#
# Track frame offsets:
#	150
#	14575
#	27027
#	38368
#	49260
#	60815
#	72600
#	85714
#	96848
#	110291
#	128925
#	142124
#	156535
#	168667
#	179132
#	197804
#	212412
#	226215
#
# Disc length: 3234 seconds
#
# Revision: 1
# Processed by: cddbd v1.5.2PL0 Copyright (c) Steve Scherf et al.
# Submitted via: audiograbber 1.83.01
#
DISCID=fb0ca012
DTITLE=Ohrwürmer - Ohrwürmer Country Songs - CD1
DYEAR=2017
DGENRE=Country
TTITLE0=John Denver - Take me home, Country roads
TTITLE1=Zella Lehr - Two doors down
TTITLE2=Patty Loveless - Timber, I'm falling in love
TTITLE3=Dolly Parton - Jolene
TTITLE4=Johnny Cash - Ring of fire
TTITLE5=Tina Turner - Stand by your man
TTITLE6=Lynn Anderson - Rose Garden
TTITLE7=Jo Anne Houston - The race is on
TTITLE8=Loretta Lynn - Coal miner's daughter
TTITLE9=Marty Robbins - El paso city
TTITLE10=Dottie West - D.I.V.O.R.C.E
TTITLE11=La Toya Jackson - Dance away these blues tonight
TTITLE12=Wanda Jackson - What in the world's come over you
TTITLE13=Sue Thompson - Norman
TTITLE14=Elvis Presley - Old shep
TTITLE15=Lacy J. Dalton - Blue-Eyed blues
TTITLE16=Kenny Rogers - You send me
TTITLE17=Billie Jo Spears - Blanket on the ground
EXTD=
EXTT0=
EXTT1=
EXTT2=
EXTT3=
EXTT4=
EXTT5=
EXTT6=
EXTT7=
EXTT8=
EXTT9=
EXTT10=
EXTT11=
EXTT12=
EXTT13=
EXTT14=
EXTT15=
EXTT16=
EXTT17=
PLAYORDER=
